<?xml version="1.0" encoding="UTF-8" standalone="no"?>
<svg
   xmlns:dc="http://purl.org/dc/elements/1.1/"
   xmlns:cc="http://creativecommons.org/ns#"
   xmlns:rdf="http://www.w3.org/1999/02/22-rdf-syntax-ns#"
   xmlns:svg="http://www.w3.org/2000/svg"
   xmlns="http://www.w3.org/2000/svg"
   xmlns:xlink="http://www.w3.org/1999/xlink"
   version="1.2"
   width="3.1631334mm"
   height="1.7572963mm"
   viewBox="0 0 1.8 1"
   id="svg104">
  <metadata
     id="metadata110">
    <rdf:RDF>
      <cc:Work
         rdf:about="">
        <dc:format>image/svg+xml</dc:format>
        <dc:type
           rdf:resource="http://purl.org/dc/dcmitype/StillImage" />
        <dc:title></dc:title>
      </cc:Work>
    </rdf:RDF>
  </metadata>
  <defs
     id="defs108" />
  <style
     text="style/css"
     id="style88"><![CDATA[
tspan { white-space: pre; }
]]></style>
  <!-- Page: 1/1 -->
  <text
     font-family="serif"
     font-size="2.2001px"
     text-anchor="start"
     fill="currentColor"
     id="text92"
     x="-1.7521"
     y="-1"><tspan
       id="tspan90" /></text>
  <rect
     x="0.24790001"
     y="1.9271001"
     width="0.13"
     height="0"
     ry="0.0000"
     fill="currentColor"
     id="rect94" />
  <a
     style="color:inherit"
     xlink:href="textedit:///Users/jwy/Documents/GitHub/animation_template/public/notation/quarter_accent.ly:26:14:15"
     id="a98"
     transform="translate(-7.4427,-3.8453)">
    <path
       transform="matrix(0.004,0,0,-0.004,8.3427,4.3453)"
       d="m -211,88 c -8,2 -14,9 -14,18 0,10 9,19 19,19 2,0 3,-1 4,-1 L 206,19 c 13,0 19,-6 19,-19 0,-13 -6,-19 -19,-19 l -408,-105 c -1,0 -2,-1 -4,-1 -10,0 -19,9 -19,19 0,9 6,16 14,18 L 40,-23 180,0 40,23 Z"
       fill="currentColor"
       id="path96" />
  </a>
</svg>
