<?xml version="1.0" encoding="UTF-8" standalone="no"?>
<svg
   xmlns:dc="http://purl.org/dc/elements/1.1/"
   xmlns:cc="http://creativecommons.org/ns#"
   xmlns:rdf="http://www.w3.org/1999/02/22-rdf-syntax-ns#"
   xmlns:svg="http://www.w3.org/2000/svg"
   xmlns="http://www.w3.org/2000/svg"
   id="svg101"
   viewBox="0 0 3.9521 5.0212179"
   height="33.349674"
   width="26.248859"
   version="1.2">
  <metadata
     id="metadata107">
    <rdf:RDF>
      <cc:Work
         rdf:about="">
        <dc:format>image/svg+xml</dc:format>
        <dc:type
           rdf:resource="http://purl.org/dc/dcmitype/StillImage" />
        <dc:title></dc:title>
      </cc:Work>
    </rdf:RDF>
  </metadata>
  <defs
     id="defs105" />
  <style
     id="style83"
     text="style/css"><![CDATA[
tspan { white-space: pre; }
]]></style>
  <!-- Page: 1/1 -->
  <text
     y="-0.95977736"
     x="-2"
     id="text87"
     fill="currentColor"
     text-anchor="start"
     font-size="2.2001px"
     font-family="serif"><tspan
       id="tspan85" /></text>
  <path
     style="stroke-width:0.00401611"
     id="path89"
     fill="currentColor"
     d="m 2.2081,4.1623392 c -0.032,-0.00806 -0.056,-0.036302 -0.056,-0.072582 0,-0.04033 0.036,-0.076615 0.076,-0.076615 0.008,0 0.012,0.00403 0.016,0.00403 l 1.632,0.4233928 c 0.052,0 0.076,0.024173 0.076,0.076615 0,0.052421 -0.024,0.076615 -0.076,0.076615 l -1.632,0.4233928 c -0.004,0 -0.008,0.00403 -0.016,0.00403 -0.04,0 -0.076,-0.036302 -0.076,-0.076615 0,-0.036302 0.024,-0.064516 0.056,-0.072582 l 1.004,-0.2621009 0.56,-0.092743 -0.56,-0.092743 z" />
  <rect
     style="stroke-width:1.00403"
     id="rect91"
     fill="currentColor"
     ry="0.040322974"
     height="2.8366203"
     width="0.13000001"
     y="0.24193782"
     x="3.5742002" />
  <path
     style="stroke-width:0.00401611"
     id="path93"
     fill="currentColor"
     d="m 0.872,2.7177685 c 0.22,0 0.432,0.1129039 0.432,0.3588726 0,0.2862949 -0.22,0.4879079 -0.408,0.6008126 -0.14,0.084677 -0.3,0.1370979 -0.464,0.1370979 C 0.212,3.8145516 0,3.7016477 0,3.455679 0,3.1693841 0.22,2.9677707 0.408,2.8548664 0.548,2.7701894 0.708,2.7177685 0.872,2.7177685 Z" />
  <rect
     style="stroke-width:1.00403"
     id="rect95"
     fill="currentColor"
     ry="0.040322974"
     height="2.8366203"
     width="0.13000001"
     y="0.24193782"
     x="1.1742004" />
  <polygon
     id="polygon97"
     points="2.49,0.2 0.04,0.2 0.04,-0.2 2.49,-0.2 "
     stroke="currentColor"
     fill="currentColor"
     stroke-width="0.08"
     stroke-linecap="round"
     stroke-linejoin="round"
     transform="matrix(1,0,0,1.0080743,1.1742,0.24193783)" />
  <path
     style="stroke-width:0.00401611"
     id="path99"
     fill="currentColor"
     d="m 3.272,2.7177685 c 0.22,0 0.432,0.1129039 0.432,0.3588726 0,0.2862949 -0.22,0.4879079 -0.408,0.6008126 -0.14,0.084677 -0.3,0.1370979 -0.464,0.1370979 -0.22,0 -0.432,-0.1129039 -0.432,-0.3588726 0,-0.2862949 0.22,-0.4879083 0.408,-0.6008126 0.14,-0.084677 0.3,-0.1370979 0.464,-0.1370979 z" />
</svg>
