<?xml version="1.0" encoding="UTF-8" standalone="no"?>
<svg
   xmlns:dc="http://purl.org/dc/elements/1.1/"
   xmlns:cc="http://creativecommons.org/ns#"
   xmlns:rdf="http://www.w3.org/1999/02/22-rdf-syntax-ns#"
   xmlns:svg="http://www.w3.org/2000/svg"
   xmlns="http://www.w3.org/2000/svg"
   xmlns:xlink="http://www.w3.org/1999/xlink"
   id="svg919"
   viewBox="0 0 11.432101 6.8638093"
   height="12.061747mm"
   width="20.089588mm"
   version="1.2">
  <metadata
     id="metadata925">
    <rdf:RDF>
      <cc:Work
         rdf:about="">
        <dc:format>image/svg+xml</dc:format>
        <dc:type
           rdf:resource="http://purl.org/dc/dcmitype/StillImage" />
        <dc:title></dc:title>
      </cc:Work>
    </rdf:RDF>
  </metadata>
  <defs
     id="defs923" />
  <style
     id="style859"
     text="style/css"><![CDATA[
tspan { white-space: pre; }
]]></style>
  <!-- Page: 1/1 -->
  <text
     y="-1.0046909"
     x="-1.7521"
     id="text863"
     fill="currentColor"
     text-anchor="start"
     font-size="2.2001px"
     font-family="serif"><tspan
       id="tspan861" /></text>
  <a
     transform="translate(-7.4427,-3.8499909)"
     id="a867"
     xlink:href="textedit:///Users/jwy/Documents/GitHub/animation_template/public/notation/quintuplet_accent.ly:37:29:30"
     style="color:inherit">
    <path
       id="path865"
       fill="currentColor"
       d="m 218,136 c 55,0 108,-28 108,-89 0,-71 -55,-121 -102,-149 -35,-21 -75,-34 -116,-34 -55,0 -108,28 -108,89 0,71 55,121 102,149 35,21 75,34 116,34 z"
       transform="matrix(0.004,0,0,-0.004,10.0906,8.9728)" />
  </a>
  <rect
     id="rect869"
     fill="currentColor"
     ry="0.039999999"
     height="3.0039001"
     width="0.13"
     y="1.9328091"
     x="3.8220999" />
  <a
     transform="translate(-7.4427,-3.8499909)"
     id="a873"
     xlink:href="textedit:///Users/jwy/Documents/GitHub/animation_template/public/notation/quintuplet_accent.ly:37:33:34"
     style="color:inherit">
    <path
       id="path871"
       fill="currentColor"
       d="m 218,136 c 55,0 108,-28 108,-89 0,-71 -55,-121 -102,-149 -35,-21 -75,-34 -116,-34 -55,0 -108,28 -108,89 0,71 55,121 102,149 35,21 75,34 116,34 z"
       transform="matrix(0.004,0,0,-0.004,12.4906,8.9728)" />
  </a>
  <rect
     id="rect875"
     fill="currentColor"
     ry="0.039999999"
     height="3.0039001"
     width="0.13"
     y="1.9328091"
     x="6.2220998" />
  <a
     transform="translate(-7.4427,-3.8499909)"
     id="a879"
     xlink:href="textedit:///Users/jwy/Documents/GitHub/animation_template/public/notation/quintuplet_accent.ly:37:37:38"
     style="color:inherit">
    <path
       id="path877"
       fill="currentColor"
       d="m 218,136 c 55,0 108,-28 108,-89 0,-71 -55,-121 -102,-149 -35,-21 -75,-34 -116,-34 -55,0 -108,28 -108,89 0,71 55,121 102,149 35,21 75,34 116,34 z"
       transform="matrix(0.004,0,0,-0.004,14.8906,8.9728)" />
  </a>
  <rect
     id="rect881"
     fill="currentColor"
     ry="0.039999999"
     height="3.0039001"
     width="0.13"
     y="1.9328091"
     x="8.6220999" />
  <a
     transform="translate(-7.4427,-3.8499909)"
     id="a885"
     xlink:href="textedit:///Users/jwy/Documents/GitHub/animation_template/public/notation/quintuplet_accent.ly:37:41:42"
     style="color:inherit">
    <path
       id="path883"
       fill="currentColor"
       d="m 218,136 c 55,0 108,-28 108,-89 0,-71 -55,-121 -102,-149 -35,-21 -75,-34 -116,-34 -55,0 -108,28 -108,89 0,71 55,121 102,149 35,21 75,34 116,34 z"
       transform="matrix(0.004,0,0,-0.004,17.2906,8.9728)" />
  </a>
  <polygon
     id="polygon887"
     points="0.04,0.2 0.04,-0.2 9.69,-0.2 9.69,0.2 "
     stroke="currentColor"
     fill="currentColor"
     stroke-width="0.08"
     stroke-linecap="round"
     stroke-linejoin="round"
     transform="translate(1.4221,1.9328091)" />
  <polygon
     id="polygon889"
     points="0.04,0.2 0.04,-0.2 9.69,-0.2 9.69,0.2 "
     stroke="currentColor"
     fill="currentColor"
     stroke-width="0.08"
     stroke-linecap="round"
     stroke-linejoin="round"
     transform="translate(1.4221,2.7428091)" />
  <a
     transform="translate(-7.4427,-3.8499909)"
     id="a895"
     xlink:href="textedit:///Users/jwy/Documents/GitHub/animation_template/public/notation/quintuplet_accent.ly:37:8:9"
     style="color:inherit">
    <text
       id="text893"
       fill="currentColor"
       text-anchor="start"
       font-size="1.7461px"
       font-style="italic"
       font-family="serif"
       transform="translate(13.2859,5.0061)"><tspan
         id="tspan891">5</tspan></text>
  </a>
  <a
     transform="translate(-7.4427,-3.8499909)"
     id="a905"
     xlink:href="textedit:///Users/jwy/Documents/GitHub/animation_template/public/notation/quintuplet_accent.ly:37:8:9"
     style="color:inherit">
    <line
       id="line897"
       y2="0.69999999"
       x2="9.9300003"
       y1="0"
       x1="9.9300003"
       stroke="currentColor"
       stroke-width="0.16"
       stroke-linecap="round"
       stroke-linejoin="round"
       transform="translate(8.8648,4.4428)" />
    <line
       id="line899"
       y2="0.69999999"
       x2="-0.2"
       y1="0"
       x1="-0.2"
       stroke="currentColor"
       stroke-width="0.16"
       stroke-linecap="round"
       stroke-linejoin="round"
       transform="translate(8.8648,4.4428)" />
    <line
       id="line901"
       y2="0"
       x2="5.9088998"
       y1="0"
       x1="9.9300003"
       stroke="currentColor"
       stroke-width="0.16"
       stroke-linecap="round"
       stroke-linejoin="round"
       transform="translate(8.8648,4.4428)" />
    <line
       id="line903"
       y2="0"
       x2="4.0211"
       y1="0"
       x1="-0.2"
       stroke="currentColor"
       stroke-width="0.16"
       stroke-linecap="round"
       stroke-linejoin="round"
       transform="translate(8.8648,4.4428)" />
  </a>
  <a
     transform="translate(-7.4427,-3.8499909)"
     id="a909"
     xlink:href="textedit:///Users/jwy/Documents/GitHub/animation_template/public/notation/quintuplet_accent.ly:37:21:22"
     style="color:inherit">
    <path
       id="path907"
       fill="currentColor"
       d="m 218,136 c 55,0 108,-28 108,-89 0,-71 -55,-121 -102,-149 -35,-21 -75,-34 -116,-34 -55,0 -108,28 -108,89 0,71 55,121 102,149 35,21 75,34 116,34 z"
       transform="matrix(0.004,0,0,-0.004,7.6906,8.9728)" />
  </a>
  <a
     transform="translate(-7.4427,-3.8499909)"
     id="a913"
     xlink:href="textedit:///Users/jwy/Documents/GitHub/animation_template/public/notation/quintuplet_accent.ly:37:26:27"
     style="color:inherit">
    <path
       id="path911"
       fill="currentColor"
       d="m -211,88 c -8,2 -14,9 -14,18 0,10 9,19 19,19 2,0 3,-1 4,-1 L 206,19 c 13,0 19,-6 19,-19 0,-13 -6,-19 -19,-19 l -408,-105 c -1,0 -2,-1 -4,-1 -10,0 -19,9 -19,19 0,9 6,16 14,18 L 40,-23 180,0 40,23 Z"
       transform="matrix(0.004,0,0,-0.004,8.3427,10.2138)" />
  </a>
  <rect
     id="rect915"
     fill="currentColor"
     ry="0.039999999"
     height="3.0039001"
     width="0.13"
     y="1.9328091"
     x="1.4220999" />
  <rect
     id="rect917"
     fill="currentColor"
     ry="0.039999999"
     height="3.0039001"
     width="0.13"
     y="1.9328091"
     x="11.0221" />
</svg>
