<?xml version="1.0" encoding="UTF-8" standalone="no"?>
<svg
   xmlns:dc="http://purl.org/dc/elements/1.1/"
   xmlns:cc="http://creativecommons.org/ns#"
   xmlns:rdf="http://www.w3.org/1999/02/22-rdf-syntax-ns#"
   xmlns:svg="http://www.w3.org/2000/svg"
   xmlns="http://www.w3.org/2000/svg"
   xmlns:xlink="http://www.w3.org/1999/xlink"
   id="svg539"
   viewBox="0 0 6.6320998 6.6805815"
   height="0.46219531in"
   width="0.45884112in"
   version="1.2">
  <metadata
     id="metadata545">
    <rdf:RDF>
      <cc:Work
         rdf:about="">
        <dc:format>image/svg+xml</dc:format>
        <dc:type
           rdf:resource="http://purl.org/dc/dcmitype/StillImage" />
        <dc:title></dc:title>
      </cc:Work>
    </rdf:RDF>
  </metadata>
  <defs
     id="defs543" />
  <style
     id="style493"
     text="style/css"><![CDATA[
tspan { white-space: pre; }
]]></style>
  <!-- Page: 1/1 -->
  <text
     y="-1.0150183"
     x="-1.7521"
     id="text497"
     fill="currentColor"
     text-anchor="start"
     font-size="2.2001px"
     font-family="serif"><tspan
       id="tspan495" /></text>
  <a
     transform="translate(-7.4427,-3.8603184)"
     id="a501"
     xlink:href="textedit:///Users/jwy/Documents/GitHub/animation_template/public/notation/triplet_accent_1st_partial.ly:37:29:30"
     style="color:inherit">
    <path
       id="path499"
       fill="currentColor"
       d="m 218,136 c 55,0 108,-28 108,-89 0,-71 -55,-121 -102,-149 -35,-21 -75,-34 -116,-34 -55,0 -108,28 -108,89 0,71 55,121 102,149 35,21 75,34 116,34 z"
       transform="matrix(0.004,0,0,-0.004,10.0906,8.7999)" />
  </a>
  <a
     transform="translate(-7.4427,-3.8603184)"
     id="a505"
     xlink:href="textedit:///Users/jwy/Documents/GitHub/animation_template/public/notation/triplet_accent_1st_partial.ly:37:33:34"
     style="color:inherit">
    <path
       id="path503"
       fill="currentColor"
       d="m 218,136 c 55,0 108,-28 108,-89 0,-71 -55,-121 -102,-149 -35,-21 -75,-34 -116,-34 -55,0 -108,28 -108,89 0,71 55,121 102,149 35,21 75,34 116,34 z"
       transform="matrix(0.004,0,0,-0.004,12.4906,8.7999)" />
  </a>
  <rect
     id="rect507"
     fill="currentColor"
     ry="0.039999999"
     height="2.8139"
     width="0.13"
     y="1.9395816"
     x="6.2220998" />
  <polygon
     id="polygon509"
     points="0.04,-0.2 4.89,-0.2 4.89,0.2 0.04,0.2 "
     stroke="currentColor"
     fill="currentColor"
     stroke-width="0.08"
     stroke-linecap="round"
     stroke-linejoin="round"
     transform="translate(1.4221,1.9395816)" />
  <a
     transform="translate(-7.4427,-3.8603184)"
     id="a515"
     xlink:href="textedit:///Users/jwy/Documents/GitHub/animation_template/public/notation/triplet_accent_1st_partial.ly:37:8:9"
     style="color:inherit">
    <text
       id="text513"
       fill="currentColor"
       text-anchor="start"
       font-size="1.7461px"
       font-style="italic"
       font-family="serif"
       transform="translate(10.8859,5.0403)"><tspan
         id="tspan511">3</tspan></text>
  </a>
  <a
     transform="translate(-7.4427,-3.8603184)"
     id="a525"
     xlink:href="textedit:///Users/jwy/Documents/GitHub/animation_template/public/notation/triplet_accent_1st_partial.ly:37:8:9"
     style="color:inherit">
    <line
       id="line517"
       y2="0.69999999"
       x2="5.1300001"
       y1="0"
       x1="5.1300001"
       stroke="currentColor"
       stroke-width="0.16"
       stroke-linecap="round"
       stroke-linejoin="round"
       transform="translate(8.8648,4.4599)" />
    <line
       id="line519"
       y2="0.69999999"
       x2="-0.2"
       y1="0"
       x1="-0.2"
       stroke="currentColor"
       stroke-width="0.16"
       stroke-linecap="round"
       stroke-linejoin="round"
       transform="translate(8.8648,4.4599)" />
    <line
       id="line521"
       y2="0"
       x2="3.5088999"
       y1="0"
       x1="5.1300001"
       stroke="currentColor"
       stroke-width="0.16"
       stroke-linecap="round"
       stroke-linejoin="round"
       transform="translate(8.8648,4.4599)" />
    <line
       id="line523"
       y2="0"
       x2="1.6210999"
       y1="0"
       x1="-0.2"
       stroke="currentColor"
       stroke-width="0.16"
       stroke-linecap="round"
       stroke-linejoin="round"
       transform="translate(8.8648,4.4599)" />
  </a>
  <rect
     id="rect527"
     fill="currentColor"
     ry="0.039999999"
     height="2.8139"
     width="0.13"
     y="1.9395816"
     x="3.8220999" />
  <a
     transform="translate(-7.4427,-3.8603184)"
     id="a531"
     xlink:href="textedit:///Users/jwy/Documents/GitHub/animation_template/public/notation/triplet_accent_1st_partial.ly:37:21:22"
     style="color:inherit">
    <path
       id="path529"
       fill="currentColor"
       d="m 218,136 c 55,0 108,-28 108,-89 0,-71 -55,-121 -102,-149 -35,-21 -75,-34 -116,-34 -55,0 -108,28 -108,89 0,71 55,121 102,149 35,21 75,34 116,34 z"
       transform="matrix(0.004,0,0,-0.004,7.6906,8.7999)" />
  </a>
  <a
     transform="translate(-7.4427,-3.8603184)"
     id="a535"
     xlink:href="textedit:///Users/jwy/Documents/GitHub/animation_template/public/notation/triplet_accent_1st_partial.ly:37:26:27"
     style="color:inherit">
    <path
       id="path533"
       fill="currentColor"
       d="m -211,88 c -8,2 -14,9 -14,18 0,10 9,19 19,19 2,0 3,-1 4,-1 L 206,19 c 13,0 19,-6 19,-19 0,-13 -6,-19 -19,-19 l -408,-105 c -1,0 -2,-1 -4,-1 -10,0 -19,9 -19,19 0,9 6,16 14,18 L 40,-23 180,0 40,23 Z"
       transform="matrix(0.004,0,0,-0.004,8.3427,10.0409)" />
  </a>
  <rect
     id="rect537"
     fill="currentColor"
     ry="0.039999999"
     height="2.8139"
     width="0.13"
     y="1.9395816"
     x="1.4220999" />
</svg>
